<svg width="11" height="14" viewBox="0 0 11 14" fill="none" xmlns="http://www.w3.org/2000/svg">
<path d="M8.68004 1.21953C8.84137 0.844925 8.72106 0.407425 8.3902 0.1668C8.05934 -0.0738249 7.60816 -0.0519499 7.29918 0.216019L0.29918 6.34102C0.0257429 6.58164 -0.0726947 6.96719 0.0558209 7.30625C0.184337 7.64532 0.512462 7.875 0.876133 7.875H3.92496L1.82223 12.7805C1.6609 13.1551 1.78121 13.5926 2.11207 13.8332C2.44293 14.0738 2.8941 14.052 3.20309 13.784L10.2031 7.65899C10.4765 7.41836 10.575 7.03282 10.4464 6.69375C10.3179 6.35469 9.99254 6.12774 9.62613 6.12774H6.57731L8.68004 1.21953Z" fill="#00E676"/>
</svg>
