<svg width="23" height="24" viewBox="0 0 23 24" fill="none" xmlns="http://www.w3.org/2000/svg">
<path d="M22.558 7.80938C22.708 8.21719 22.5815 8.67188 22.258 8.9625L20.2283 10.8094C20.2799 11.1984 20.308 11.5969 20.308 12C20.308 12.4031 20.2799 12.8016 20.2283 13.1906L22.258 15.0375C22.5815 15.3281 22.708 15.7828 22.558 16.1906C22.3518 16.7484 22.1033 17.2828 21.8174 17.7984L21.5971 18.1781C21.2877 18.6937 20.9408 19.1812 20.5611 19.6406C20.2846 19.9781 19.8252 20.0906 19.4127 19.9594L16.8018 19.1297C16.1736 19.6125 15.4799 20.0156 14.7393 20.3203L14.1533 22.9969C14.0596 23.4234 13.7315 23.7609 13.3002 23.8312C12.6533 23.9391 11.9877 23.9953 11.308 23.9953C10.6283 23.9953 9.96271 23.9391 9.31583 23.8312C8.88458 23.7609 8.55646 23.4234 8.46271 22.9969L7.87677 20.3203C7.13615 20.0156 6.4424 19.6125 5.81427 19.1297L3.20802 19.9641C2.79552 20.0953 2.33614 19.9781 2.05958 19.6453C1.67989 19.1859 1.33302 18.6984 1.02364 18.1828L0.803332 17.8031C0.517395 17.2875 0.268957 16.7531 0.0627074 16.1953C-0.0872926 15.7875 0.0392698 15.3328 0.362707 15.0422L2.3924 13.1953C2.34083 12.8016 2.31271 12.4031 2.31271 12C2.31271 11.5969 2.34083 11.1984 2.3924 10.8094L0.362707 8.9625C0.0392698 8.67188 -0.0872926 8.21719 0.0627074 7.80938C0.268957 7.25156 0.517395 6.71719 0.803332 6.20156L1.02364 5.82187C1.33302 5.30625 1.67989 4.81875 2.05958 4.35938C2.33614 4.02187 2.79552 3.90937 3.20802 4.04062L5.81896 4.87031C6.44708 4.3875 7.14083 3.98438 7.88146 3.67969L8.4674 1.00312C8.56115 0.576562 8.88927 0.239062 9.32052 0.16875C9.9674 0.05625 10.633 0 11.3127 0C11.9924 0 12.658 0.05625 13.3049 0.164062C13.7361 0.234375 14.0643 0.571875 14.158 0.998437L14.744 3.675C15.4846 3.97969 16.1783 4.38281 16.8065 4.86563L19.4174 4.03594C19.8299 3.90469 20.2893 4.02187 20.5658 4.35469C20.9455 4.81406 21.2924 5.30156 21.6018 5.81719L21.8221 6.19687C22.108 6.7125 22.3565 7.24687 22.5627 7.80469L22.558 7.80938ZM11.3127 15.75C12.3073 15.75 13.2611 15.3549 13.9644 14.6517C14.6676 13.9484 15.0627 12.9946 15.0627 12C15.0627 11.0054 14.6676 10.0516 13.9644 9.34835C13.2611 8.64509 12.3073 8.25 11.3127 8.25C10.3181 8.25 9.36432 8.64509 8.66106 9.34835C7.9578 10.0516 7.56271 11.0054 7.56271 12C7.56271 12.9946 7.9578 13.9484 8.66106 14.6517C9.36432 15.3549 10.3181 15.75 11.3127 15.75Z" fill="#DBEAFE"/>
</svg>
