<svg width="12" height="16" viewBox="0 0 12 16" fill="none" xmlns="http://www.w3.org/2000/svg">
<path d="M9.92004 1.39354C10.1044 0.965419 9.96692 0.465419 9.58879 0.190419C9.21067 -0.0845806 8.69504 -0.0595806 8.34192 0.246669L0.34192 7.24667C0.0294204 7.52167 -0.0830796 7.96229 0.0637954 8.34979C0.21067 8.73729 0.58567 8.99979 1.0013 8.99979H4.48567L2.08255 14.606C1.89817 15.0342 2.03567 15.5342 2.4138 15.8092C2.79192 16.0842 3.30755 16.0592 3.66067 15.7529L11.6607 8.75292C11.9732 8.47792 12.0857 8.03729 11.9388 7.64979C11.7919 7.26229 11.42 7.00292 11.0013 7.00292H7.51692L9.92004 1.39354Z" fill="white"/>
</svg>
